<svg width="241" height="241" viewBox="0 0 241 241" fill="none" xmlns="http://www.w3.org/2000/svg">
<path d="M20.082 20.082H33.1981C35.6685 20.082 36.9037 20.082 37.8978 20.5363C38.7738 20.9367 39.5161 21.5805 40.0363 22.3911C40.6266 23.3109 40.8013 24.5337 41.1507 26.9793L45.9035 60.2487M45.9035 60.2487L56.4662 137.885C57.8066 147.737 58.4768 152.663 60.8321 156.371C62.9075 159.638 65.8829 162.236 69.4002 163.852C73.3919 165.686 78.3633 165.686 88.3062 165.686H174.242C183.706 165.686 188.439 165.686 192.306 163.983C195.716 162.482 198.641 160.061 200.754 156.992C203.151 153.512 204.036 148.863 205.807 139.565L219.099 69.7852C219.722 66.5128 220.034 64.8766 219.582 63.5976C219.186 62.4756 218.404 61.5309 217.376 60.9317C216.204 60.2487 214.539 60.2487 211.207 60.2487H45.9035ZM100.415 210.874C100.415 216.42 95.9196 220.915 90.3737 220.915C84.8278 220.915 80.332 216.42 80.332 210.874C80.332 205.328 84.8278 200.832 90.3737 200.832C95.9196 200.832 100.415 205.328 100.415 210.874ZM180.749 210.874C180.749 216.42 176.253 220.915 170.707 220.915C165.161 220.915 160.665 216.42 160.665 210.874C160.665 205.328 165.161 200.832 170.707 200.832C176.253 200.832 180.749 205.328 180.749 210.874Z" stroke="#0B0F12" stroke-width="10" stroke-linecap="round" stroke-linejoin="round"/>
</svg>

