<svg width="215" height="215" viewBox="0 0 215 215" fill="none" xmlns="http://www.w3.org/2000/svg">
<rect width="215" height="215" rx="30" fill="white"/>
<path d="M161.7 105.463C162.446 105.509 162.979 105.547 163.511 105.577C165.353 105.684 166.792 106.475 167.591 108.165C168.802 110.715 169.525 113.379 169.167 116.249C169.106 116.728 169.053 117.231 169.136 117.695C169.677 120.831 169.22 123.975 169.121 127.111C169.037 129.813 168.748 132.538 168.193 135.179C167.736 137.356 166.609 139.274 164.524 140.507C163.078 141.36 161.89 142.638 160.109 142.897C159.835 142.935 159.492 143.468 159.424 143.818C159.218 144.815 159.142 145.835 159.021 146.855C158.769 148.964 158.701 151.11 158.214 153.165C157.886 154.535 157.14 155.883 156.296 157.032C154.933 158.882 153.403 160.617 151.828 162.292C150.511 163.685 149.141 165.1 147.573 166.189C143.394 169.081 139.108 171.829 134.823 174.562C133.4 175.468 131.816 176.122 130.332 176.944C127.919 178.269 125.575 179.692 123.253 181.161C120.148 183.125 116.723 183.924 113.046 183.825C110.938 183.772 108.822 184.069 106.721 183.985C102.694 183.818 98.6068 184.251 94.7172 182.676C92.7458 181.877 90.8277 181.039 89.3282 179.471C89.2292 179.365 89.0389 179.35 88.9019 179.273C86.3216 177.919 83.7031 176.647 81.1837 175.186C78.6186 173.702 76.1524 172.05 73.6634 170.436C71.5245 169.059 69.378 167.696 67.3076 166.227C64.7197 164.393 62.5503 162.124 60.7235 159.529C60.3734 159.034 60.0157 158.532 59.5818 158.113C57.755 156.37 56.735 154.284 56.5067 151.742C56.2479 148.91 55.8064 146.087 55.4334 143.141C53.4925 142.76 51.9473 141.641 50.3641 140.53C47.9816 138.863 46.6344 136.61 46.3603 133.817C45.995 130.148 45.8351 126.456 45.6905 122.764C45.584 120.047 45.5916 117.322 45.6372 114.605C45.6753 112.329 46.3071 110.175 47.3042 108.142C48.0882 106.544 49.4583 105.722 51.2394 105.6C51.8331 105.562 52.4344 105.539 53.051 105.509C52.8988 100.569 52.7161 95.743 52.6171 90.9096C52.541 87.0962 52.7313 83.2827 53.2565 79.4997C53.8198 75.4579 54.8321 71.5379 56.3012 67.7321C57.4505 64.7407 58.9348 61.932 60.4571 59.1081C62.4818 55.3403 65.2373 52.1434 67.9013 48.878C68.9594 47.5764 70.436 46.625 71.6767 45.468C75.1172 42.2711 79.1742 39.9419 83.1171 37.4758C84.5785 36.5624 86.2759 35.9839 87.8972 35.3597C89.7849 34.629 91.6802 33.8831 93.6288 33.3731C96.3157 32.6652 99.0483 32.0943 101.788 31.6072C103.691 31.2723 105.64 30.9526 107.558 31.0058C111.067 31.1124 114.561 31.4854 117.948 32.5282C120.14 33.2056 122.378 33.7232 124.578 34.3702C125.476 34.629 126.367 34.9715 127.204 35.3749C129.107 36.2883 130.994 37.2322 132.859 38.2217C133.986 38.8154 135.051 39.5233 136.147 40.1703C139.398 42.0808 142.191 44.585 144.992 47.0741C147.809 49.5859 150.237 52.4479 152.223 55.66C153.966 58.4763 155.915 61.247 157.163 64.284C158.48 67.4885 160.139 70.6322 160.535 74.1944C160.718 75.8081 161.167 77.3989 161.54 78.9898C162.233 81.9659 162.202 84.9877 162.195 88.0096C162.179 92.0133 162.141 96.0094 162.058 100.013C162.02 101.764 161.844 103.522 161.715 105.501L161.7 105.463ZM61.675 102.632C61.6293 102.632 61.5913 102.632 61.5456 102.632C61.7055 105.052 61.6217 107.518 62.0784 109.885C63.1821 115.648 65.4884 120.915 69.5911 125.215C72.24 127.994 75.102 130.551 79.1818 131C80.4454 131.137 81.7241 131.236 82.9953 131.206C87.0371 131.122 90.7668 129.988 94.1007 127.666C96.2928 126.144 98.4393 124.546 100.624 123.016C101.111 122.681 101.69 122.292 102.238 122.262C105.016 122.117 107.794 122.018 110.572 122.041C111.623 122.049 112.787 122.209 113.701 122.688C115.139 123.442 116.471 124.447 117.727 125.489C122.447 129.402 127.737 131.624 133.971 131.168C135.972 131.023 138.02 130.848 139.733 129.729C142.328 128.047 144.741 126.121 146.667 123.625C150.32 118.882 152.558 113.57 153 107.617C153.319 103.324 153.297 99.0008 153.418 94.6926C153.434 94.0913 153.502 93.4824 153.388 92.9039C153.243 92.1351 152.741 91.7621 151.911 92.0438C150.191 92.6299 148.471 93.2007 146.758 93.7944C145.951 94.0685 145.175 94.411 144.36 94.6546C141.103 95.6136 137.83 96.5346 134.564 97.4785C127.721 99.4575 120.757 100.812 113.663 101.398C105.868 102.045 98.1196 101.49 90.4699 99.8914C85.9638 98.9475 81.4805 97.8286 77.0353 96.6107C73.7623 95.7126 70.573 94.5328 67.3457 93.4824C65.8462 92.9952 64.3467 92.5233 62.8548 92.0361C62.1013 91.7926 61.6674 92.1655 61.4771 92.8201C61.3629 93.216 61.3705 93.6574 61.3858 94.0761C61.4695 96.9228 61.5761 99.7696 61.6674 102.616L61.675 102.632ZM143.949 56.9997C142.625 54.1757 140.806 52.1663 138.697 50.4156C136.749 48.8019 134.694 47.3176 132.753 45.6964C130.165 43.5423 127.067 42.2863 124.182 40.6727C121.175 40.5052 118.694 38.6556 115.68 38.2217C112.117 37.7117 108.624 37.1408 105.023 37.5062C101.043 37.9096 97.0236 38.0771 93.3928 40.0637C93.0807 40.2312 92.7001 40.2997 92.3424 40.3606C90.0969 40.7412 88.1712 41.921 86.2454 42.9942C82.3787 45.1407 79.0448 48.0484 75.6576 50.8571C73.7243 52.4631 72.004 54.366 70.9841 56.9692C71.3418 56.9692 71.5625 56.9844 71.7757 56.9692C74.9041 56.7028 77.9716 57.091 80.9477 58.0349C92.1978 61.5895 99.9845 69.1403 105.404 79.3779C106.089 80.6795 106.751 81.9888 107.52 83.4882C107.885 82.925 108.152 82.651 108.266 82.3237C110.131 76.8433 113.465 72.3143 117.446 68.2345C121 64.5885 125.027 61.5895 129.716 59.5343C134.168 57.5782 138.796 56.5658 143.942 57.0149L143.949 56.9997ZM75.1857 151.643C74.7518 154.147 76.4492 155.913 77.629 157.854C78.6033 159.46 80.1942 160.374 81.8231 161.234C84.3425 162.566 86.7706 164.073 89.5337 164.88C91.2159 165.375 92.8676 165.953 94.565 166.387C95.6078 166.653 96.6963 166.737 97.7619 166.882C98.6068 166.988 99.4593 167.003 100.297 167.156C104.217 167.864 108.159 167.833 112.11 167.551C114.287 167.392 116.449 167.148 118.625 166.935C118.983 166.897 119.356 166.866 119.699 166.76C121.777 166.113 123.893 165.557 125.91 164.766C128.216 163.86 130.5 162.847 132.677 161.668C134.465 160.701 136.422 159.856 137.548 157.968C138.264 156.773 139.215 155.67 139.687 154.383C140.555 152.046 140.768 148.614 137.83 146.931C136.102 145.942 134.298 144.998 132.403 144.435C129.647 143.62 126.785 143.719 124.022 144.61C121.388 145.462 118.915 146.726 115.999 146.665C110.352 146.543 104.704 146.612 99.0559 146.589C97.1682 146.581 95.349 146.323 93.5907 145.485C91.8629 144.663 90.0437 144.184 88.057 144.016C84.1522 143.689 80.7422 144.755 77.5301 146.802C75.787 147.913 74.8888 149.451 75.1857 151.635V151.643Z" fill="#73EEC5"/>
<path d="M95.464 113.614C94.9236 116.355 94.0026 118.752 92.3965 120.883C89.9303 124.149 86.7182 125.466 82.6764 124.796C79.3653 124.255 76.6175 122.733 74.5395 120.092C72.355 117.321 71.4873 114.238 72.3931 110.737C72.8574 108.933 72.8269 108.926 71.1524 107.951C70.8403 107.769 70.5282 107.571 70.2237 107.38C69.5159 106.939 69.4626 106.33 69.8279 105.653C69.9954 105.333 70.239 105.059 70.4673 104.77C71.7765 103.133 71.8831 103.156 73.8164 103.788C77.3787 104.96 80.9333 106.216 84.5641 107.129C87.1901 107.791 89.9379 108.027 92.6477 108.339C94.2994 108.537 95.8979 108.149 97.4202 107.441C98.3488 107.007 99.3231 106.627 100.313 106.368C101.165 106.147 101.713 106.642 101.439 107.464C100.899 109.123 100.221 110.752 99.4449 112.305C99.2242 112.739 98.4782 112.983 97.915 113.15C97.169 113.378 96.3774 113.447 95.464 113.614ZM90.7448 113.378C86.0636 112.427 81.5271 111.506 76.8383 110.547C76.7317 111.163 76.648 111.803 76.511 112.442C75.8944 115.426 77.1808 117.671 79.4186 119.407C81.6641 121.157 84.2673 121.302 86.8248 120.267C89.8542 119.041 90.3185 116.24 90.7372 113.378H90.7448Z" fill="#73EEC5"/>
<path d="M119.326 113.622C118.756 113.5 118.23 113.325 117.698 113.295C116.107 113.218 115.125 112.366 114.592 110.935C114.189 109.862 113.77 108.781 113.488 107.67C113.214 106.589 113.671 106.124 114.706 106.391C115.581 106.619 116.434 106.969 117.248 107.357C119.174 108.263 121.138 108.454 123.269 108.233C129.473 107.578 135.44 106.094 141.218 103.765C142.9 103.087 142.991 103.133 144.163 104.48C144.445 104.8 144.719 105.127 144.947 105.485C145.518 106.398 145.427 106.794 144.529 107.441C144.331 107.586 144.125 107.708 143.912 107.837C142.009 108.971 141.994 108.979 142.496 111.026C143.471 115.022 142.146 118.334 139.398 121.15C136.917 123.692 133.804 124.948 130.249 124.956C127.06 124.963 124.51 123.593 122.607 121.058C121.206 119.201 120.141 117.177 119.699 114.863C119.623 114.452 119.463 114.063 119.326 113.622ZM124.183 113.371C124.388 116.811 125.796 119.803 128.483 120.488C131.825 121.332 134.428 120.891 136.864 118.082C138.63 116.05 138.98 112.929 137.808 110.608C133.279 111.529 128.78 112.442 124.183 113.371Z" fill="#73EEC5"/>
<path d="M119.608 154.663C118.657 155.942 118.01 156.939 117.233 157.837C116.404 158.796 115.353 159.184 114.014 159.169C109.888 159.131 105.755 159.268 101.629 159.283C100.122 159.283 98.5391 159.367 97.3288 158.225C96.5448 157.495 95.3574 156.931 95.7076 155.333C99.6504 155.181 103.578 155.013 107.498 154.884C111.395 154.754 115.292 154.343 119.601 154.655L119.608 154.663Z" fill="#73EEC5"/>
</svg>
