<svg width="215" height="215" viewBox="0 0 215 215" fill="none" xmlns="http://www.w3.org/2000/svg">
  <rect width="215" height="215" rx="30" fill="white" />
  <path
    d="M35.42 45.3662C54.08 67.3862 77.59 79.4462 106.44 81.5462C106.3 80.3062 106.18 79.2362 106.04 78.1762C103.6 59.3162 116.68 41.9262 135.49 39.3662C146.38 37.8862 156.02 40.8862 164.07 48.4862C165.22 49.5662 166.18 49.8562 167.69 49.4862C174.18 47.8962 180.36 45.5262 186.19 42.2462C186.52 42.0662 186.86 41.9162 187.54 41.5862C184.79 49.6762 180.04 55.7662 173.25 60.3762C179.69 59.6762 185.81 57.9462 191.71 55.3962C191.81 55.5062 191.9 55.6162 192 55.7262C190.51 57.6662 189.2 59.7862 187.5 61.5162C183.85 65.2162 180.02 68.7562 176.19 72.2762C175.39 73.0162 174.98 73.6362 175 74.7662C175.47 98.3162 168.44 119.476 154.44 138.306C143.93 152.436 130.47 162.866 114.09 169.346C98.71 175.426 82.74 177.396 66.3 175.666C51.69 174.126 38.13 169.486 25.58 161.866C25.2 161.636 24.83 161.396 24.46 161.156C24.37 161.096 24.31 160.996 24 160.646C42.71 162.476 59.42 157.896 74.57 146.506C58.76 145.036 48.18 137.126 42.41 122.216C47.57 122.996 52.38 123.026 57.44 121.786C40.36 116.506 31.39 105.146 30.25 87.0862C35.27 89.8262 40.19 91.2262 45.82 91.5262C36.04 84.3162 31.02 74.8762 30.73 63.1062C30.58 56.8662 32.17 50.9662 35.43 45.3862L35.42 45.3662Z"
    fill="#73EEC5" />
</svg>